<svg width="35" height="41" viewBox="0 0 35 41" fill="none" xmlns="http://www.w3.org/2000/svg">
<path d="M16.7571 28.5245C16.8635 27.6455 17.2119 26.8306 17.7498 26.2024C18.2876 25.5741 18.9859 25.1664 19.7396 25.0406C21.9821 24.6746 25.2842 24.0667 30.1392 23.0797C25.2898 22.1124 21.9821 21.511 19.7396 21.1385C18.9846 21.015 18.2845 20.6082 17.7454 19.9797C17.2063 19.3511 16.8574 18.5349 16.7515 17.6546C16.4319 15.0401 15.9105 11.1837 15.0696 5.52321C14.2343 11.1837 13.7129 15.0401 13.3877 17.6546C13.2821 18.534 12.9341 19.3494 12.396 19.9779C11.858 20.6063 11.1592 21.0137 10.4052 21.1385C8.1627 21.511 4.85501 22.1124 0 23.0994C4.85501 24.0733 8.15709 24.6811 10.4052 25.0602C11.1595 25.1811 11.8598 25.5842 12.4007 26.2089C12.9415 26.8336 13.2938 27.6462 13.4045 28.5245C13.7241 31.139 14.2455 34.9954 15.0864 40.6559C15.9161 34.9954 16.4375 31.139 16.7571 28.5245Z" fill="white"/>
<path d="M27.5381 12.8308C27.5947 12.3339 27.7901 11.8726 28.0941 11.5182C28.3981 11.1637 28.7938 10.9359 29.22 10.8699C30.4646 10.6673 32.3034 10.3274 35 9.78486C32.3034 9.24235 30.4646 8.90899 29.22 8.69983C28.7934 8.63488 28.3973 8.4074 28.0931 8.05276C27.7889 7.69813 27.5938 7.23624 27.5381 6.73894C27.3587 5.28788 27.0728 3.14397 26.6074 0C26.1421 3.14397 25.8506 5.28788 25.6768 6.73894C25.6211 7.23624 25.426 7.69813 25.1218 8.05276C24.8176 8.4074 24.4215 8.63488 23.9949 8.69983C22.7503 8.90899 20.9115 9.24235 18.2149 9.78486C20.9115 10.3274 22.7503 10.6673 23.9949 10.8699C24.4211 10.9359 24.8168 11.1637 25.1208 11.5182C25.4248 11.8726 25.6202 12.3339 25.6768 12.8308C25.8506 14.2884 26.1421 16.4258 26.6074 19.5697C27.0728 16.4323 27.3587 14.2884 27.5381 12.8308Z" fill="white"/>
<path d="M22.1669 35.2961C22.1922 35.0905 22.2743 34.9001 22.4007 34.7538C22.5272 34.6075 22.6912 34.5134 22.8677 34.4856C23.3947 34.3941 24.1684 34.2568 25.3008 34.028C24.1796 33.7993 23.3947 33.6555 22.8677 33.5705C22.6928 33.5434 22.53 33.4511 22.4038 33.3074C22.2775 33.1637 22.1944 32.9763 22.1669 32.7731C22.0941 32.1652 21.9707 31.2632 21.7745 29.9363C21.5839 31.2436 21.4605 32.1652 21.3877 32.7731C21.3627 32.9794 21.2808 33.1707 21.1544 33.3181C21.028 33.4655 20.8639 33.561 20.6869 33.5901C20.1599 33.6751 19.3862 33.8189 18.2538 34.0476C19.375 34.2764 20.1599 34.4137 20.6869 34.5052C20.8631 34.534 21.0266 34.6285 21.1529 34.7746C21.2792 34.9207 21.3615 35.1105 21.3877 35.3157C21.4605 35.9301 21.5839 36.8321 21.7745 38.1525C21.9819 36.8125 22.0941 35.9105 22.1669 35.2961Z" fill="white"/>
<path d="M7.2656 15.1904C7.29085 14.9848 7.37294 14.7944 7.49941 14.6481C7.62588 14.5018 7.78984 14.4077 7.96639 14.3799C8.49337 14.2884 9.26143 14.1511 10.3995 13.9223C9.27825 13.6936 8.49337 13.5498 7.96639 13.4648C7.78902 13.4367 7.62445 13.3416 7.49788 13.194C7.37131 13.0464 7.28972 12.8545 7.2656 12.6478C7.19272 12.0399 7.06938 11.1379 6.87317 9.811C6.67695 11.1183 6.55922 12.0399 6.48073 12.6478C6.45779 12.854 6.37731 13.0457 6.25168 13.1934C6.12606 13.341 5.96226 13.4364 5.78555 13.4648C5.25857 13.5498 4.4849 13.6936 3.35244 13.9223C4.47369 14.1511 5.25857 14.2884 5.78555 14.3799C5.96144 14.4079 6.12461 14.5024 6.25014 14.6487C6.37567 14.7951 6.45666 14.9853 6.48073 15.1904C6.55922 15.8048 6.67695 16.7068 6.87317 18.0337C7.06938 16.7068 7.19272 15.7787 7.2656 15.1904Z" fill="white"/>
</svg>
